<?xml version="1.0" encoding="UTF-8" standalone="no"?>
<!-- Created with Inkscape (http://www.inkscape.org/) -->

<svg
   width="100"
   height="100"
   viewBox="0 0 26.458333 26.458333"
   version="1.1"
   id="svg5"
   xml:space="preserve"
   inkscape:version="1.2.1 (9c6d41e410, 2022-07-14, custom)"
   sodipodi:docname="lamb.svg"
   inkscape:export-filename="lamb.png"
   inkscape:export-xdpi="96"
   inkscape:export-ydpi="96"
   xmlns:inkscape="http://www.inkscape.org/namespaces/inkscape"
   xmlns:sodipodi="http://sodipodi.sourceforge.net/DTD/sodipodi-0.dtd"
   xmlns="http://www.w3.org/2000/svg"
   xmlns:svg="http://www.w3.org/2000/svg"><sodipodi:namedview
     id="namedview7"
     pagecolor="#ffffff"
     bordercolor="#000000"
     borderopacity="0.25"
     inkscape:showpageshadow="2"
     inkscape:pageopacity="0.0"
     inkscape:pagecheckerboard="0"
     inkscape:deskcolor="#d1d1d1"
     inkscape:document-units="px"
     showgrid="false"
     inkscape:zoom="3.6957657"
     inkscape:cx="17.587695"
     inkscape:cy="22.864003"
     inkscape:window-width="1280"
     inkscape:window-height="1384"
     inkscape:window-x="1280"
     inkscape:window-y="0"
     inkscape:window-maximized="0"
     inkscape:current-layer="layer1" /><defs
     id="defs2"><rect
       x="115.5293"
       y="303.42267"
       width="156.50168"
       height="132.83591"
       id="rect1140-5" /></defs><g
     inkscape:label="Layer 1"
     inkscape:groupmode="layer"
     id="layer1"><circle
       style="fill:#000000;fill-opacity:1;stroke:#000000;stroke-width:0.141581;stroke-linecap:square"
       id="path459-9"
       cx="-10.91768"
       cy="-21.763824"
       r="5.9476748" /><circle
       style="fill:#000000;fill-opacity:1;stroke:#000000;stroke-width:0.141581;stroke-linecap:square"
       id="path1017-7"
       cx="-15.729814"
       cy="-24.595367"
       r="3.3895605" /><ellipse
       style="fill:#000000;fill-opacity:1;stroke:#000000;stroke-width:0.104007;stroke-linecap:square"
       id="path1019-0"
       cx="-4.4679575"
       cy="-20.095337"
       rx="2.654557"
       ry="2.7397316" /><circle
       style="fill:#000000;fill-opacity:1;stroke:#000000;stroke-width:0.083321;stroke-linecap:square"
       id="path1021-6"
       cx="-13.038972"
       cy="-17.287964"
       r="2.8204935" /><ellipse
       style="fill:#000000;fill-opacity:1;stroke:#000000;stroke-width:0.141581;stroke-linecap:square"
       id="path1023-2"
       cx="-13.166337"
       cy="-27.783966"
       rx="3.4296885"
       ry="3.4954169" /><ellipse
       style="fill:#000000;fill-opacity:1;stroke:#000000;stroke-width:0.141581;stroke-linecap:square"
       id="path1023-3-8"
       cx="-9.2672281"
       cy="-28.196381"
       rx="3.4296885"
       ry="3.4954169" /><ellipse
       style="fill:#000000;fill-opacity:1;stroke:#000000;stroke-width:0.141581;stroke-linecap:square"
       id="path1023-6-9"
       cx="-15.350083"
       cy="-20.324738"
       rx="3.4296885"
       ry="3.4954169" /><ellipse
       style="fill:#000000;fill-opacity:1;stroke:#000000;stroke-width:0.141581;stroke-linecap:square"
       id="path1023-7-5"
       cx="-8.4960947"
       cy="-17.69986"
       rx="3.4296885"
       ry="3.4954169" /><ellipse
       style="fill:#000000;fill-opacity:1;stroke:#000000;stroke-width:0.141581;stroke-linecap:square"
       id="path1023-5-0"
       cx="-5.319932"
       cy="-25.184387"
       rx="3.4296885"
       ry="3.4954169" /><text
       xml:space="preserve"
       transform="matrix(0.21466828,0,0,0.21466828,-18.849243,-99.928973)"
       id="text1138-2"
       style="font-style:normal;font-variant:normal;font-weight:bold;font-stretch:normal;font-size:35.3308px;font-family:'CodeNewRoman Nerd Font';-inkscape-font-specification:'CodeNewRoman Nerd Font, Bold';font-variant-ligatures:normal;font-variant-caps:normal;font-variant-numeric:normal;font-variant-east-asian:normal;white-space:pre;shape-inside:url(#rect1140-5);display:inline;fill:#fe0000;fill-opacity:1;stroke:#fe0000;stroke-width:0.690382;stroke-linecap:square;stroke-dasharray:none;stroke-opacity:1"><tspan
         x="115.5293"
         y="334.07755"
         id="tspan319">λ</tspan></text><path
       id="path459"
       style="fill:#ffffff;fill-opacity:1;stroke:#000000;stroke-width:1.51936;stroke-linecap:square;stroke-dasharray:none;stroke-opacity:1"
       d="m 14.773927,2.0826067 a 4.4180325,4.4560453 0 0 0 -2.88293,1.08335 4.4180325,4.4560453 0 0 0 -2.1398505,-0.55769 4.4180325,4.4560453 0 0 0 -4.41388,4.3453 4.3663408,4.3210965 0 0 0 -3.25467,4.1756103 4.3663408,4.3210965 0 0 0 1.18822,2.96162 4.4180325,4.4560453 0 0 0 -0.75078,2.48283 4.4180325,4.4560453 0 0 0 3.8032,4.4111 3.6332843,3.5956358 0 0 0 3.59207,3.05575 3.6332843,3.5956358 0 0 0 2.6096505,-1.09408 4.4180325,4.4560453 0 0 0 3.24224,1.42936 4.4180325,4.4560453 0 0 0 4.4048,-4.11117 3.4195292,3.4926784 0 0 0 0.78412,0.0941 3.4195292,3.4926784 0 0 0 3.41962,-3.49276 3.4195292,3.4926784 0 0 0 -1.72707,-3.03446 4.4180325,4.4560453 0 0 0 1.62802,-3.45312 4.4180325,4.4560453 0 0 0 -4.41802,-4.4560103 4.4180325,4.4560453 0 0 0 -0.70164,0.058 4.4180325,4.4560453 0 0 0 -4.3831,-3.89774 z" /><path
       d="m 12.386567,10.710047 0.0523,0.14947 -3.2958205,7.82478 h 1.9954305 l 1.71143,-4.40938 0.41105,-1.1285 0.35125,1.1285 0.98651,2.92215 c 0.10463,0.31389 0.20926,0.56799 0.31389,0.77724 0.10463,0.20926 0.21673,0.38115 0.34378,0.50073 0.12705,0.12705 0.27652,0.21674 0.44093,0.26905 0.16442,0.0523 0.36621,0.0747 0.60536,0.0747 0.14947,0 0.29147,-0.007 0.43346,-0.0299 0.13453,-0.0149 0.31389,-0.0523 0.52315,-0.1121 v -1.42744 c -0.0448,0.0149 -0.0897,0.0224 -0.14947,0.0224 -0.0598,0.007 -0.1121,0.007 -0.14947,0.007 -0.16441,0 -0.29147,-0.0523 -0.38115,-0.16442 -0.0897,-0.10463 -0.18684,-0.31389 -0.29147,-0.6203 l -2.05521,-5.99376 c -0.18684,-0.5231503 -0.37368,-0.9491403 -0.56799,-1.2779803 -0.19431,-0.32883 -0.41104,-0.58293 -0.63525,-0.76977 -0.23168,-0.17936 -0.48578,-0.30641 -0.7623,-0.37368 -0.28399,-0.0598 -0.59788,-0.0971 -0.94914,-0.0971 -0.16442,0 -0.3662,0.0224 -0.60536,0.0523 -0.23915,0.0299 -0.47083,0.0747 -0.68009,0.13452 v 1.5246 c 0.14948,-0.0374 0.32884,-0.0747 0.53063,-0.10463 0.20178,-0.0299 0.38115,-0.0448 0.53061,-0.0448 0.142,0 0.26905,0.0149 0.38863,0.0448 0.11958,0.0299 0.23168,0.0822 0.33631,0.16442 0.10463,0.0897 0.20178,0.20926 0.29147,0.3587303 0.0897,0.14947 0.18683,0.35125 0.27651,0.59788 z"
       id="path1567"
       style="font-weight:bold;font-size:35.3308px;font-family:'CodeNewRoman Nerd Font';-inkscape-font-specification:'CodeNewRoman Nerd Font, Bold';white-space:pre;fill:#fe0000;stroke:#fe0000;stroke-width:0.299083;stroke-linecap:square" /></g></svg>
