<?xml version="1.0" encoding="UTF-8" standalone="no"?>
<!-- Created with Inkscape (http://www.inkscape.org/) -->

<svg
   width="512"
   height="512"
   viewBox="0 0 135.46666 135.46667"
   version="1.1"
   id="svg5"
   xml:space="preserve"
   inkscape:version="1.2.1 (9c6d41e410, 2022-07-14, custom)"
   sodipodi:docname="lamb.svg"
   xmlns:inkscape="http://www.inkscape.org/namespaces/inkscape"
   xmlns:sodipodi="http://sodipodi.sourceforge.net/DTD/sodipodi-0.dtd"
   xmlns="http://www.w3.org/2000/svg"
   xmlns:svg="http://www.w3.org/2000/svg"><sodipodi:namedview
     id="namedview7"
     pagecolor="#ffffff"
     bordercolor="#000000"
     borderopacity="0.25"
     inkscape:showpageshadow="2"
     inkscape:pageopacity="0.0"
     inkscape:pagecheckerboard="0"
     inkscape:deskcolor="#d1d1d1"
     inkscape:document-units="px"
     showgrid="false"
     inkscape:zoom="1.4331729"
     inkscape:cx="338.06108"
     inkscape:cy="323.40828"
     inkscape:window-width="2560"
     inkscape:window-height="1384"
     inkscape:window-x="0"
     inkscape:window-y="0"
     inkscape:window-maximized="0"
     inkscape:current-layer="layer1" /><defs
     id="defs2" /><g
     inkscape:label="Layer 1"
     inkscape:groupmode="layer"
     id="layer1"><path
       style="fill:#1c1e20;fill-opacity:1;stroke-width:0.132292"
       d="M 0,67.73334 V 0 h 67.733334 67.733326 v 67.73334 67.73333 H 67.733334 0 Z"
       id="path353"
       sodipodi:nodetypes="ccccccccc" /><path
       style="fill:#eeeee8;stroke:#eeeee8;stroke-width:0.61595;stroke-linecap:square;stroke-linejoin:miter;stroke-dasharray:none;stroke-opacity:1;paint-order:fill markers stroke"
       d="m 51.058045,109.75019 v -0.52231 h 3.20845 3.20846 v 0.52231 0.5223 h -3.20846 -3.20845 z m 35.815319,0 v -0.52231 h 3.20845 3.20846 v 0.52231 0.5223 h -3.20846 -3.20845 z m -40.590707,-2.61154 v -0.89539 h 0.895393 0.895376 v 0.89539 0.89539 H 47.17805 46.282657 Z m 14.326138,0 v -0.89539 h 0.89538 0.89538 v 0.89539 0.89539 h -0.89538 -0.89538 z m 21.489199,0 v -0.89539 h 0.89538 0.89538 v 0.89539 0.89539 h -0.89538 -0.89538 z m 14.326129,0 v -0.89539 h 0.89538 0.89538 v 0.89539 0.89539 h -0.89538 -0.89538 z m -30.293798,-2.61153 v -0.5223 h 2.686149 2.68615 v 0.5223 0.52231 h -2.68615 -2.686149 z m 7.163069,0 v -0.5223 h 2.68615 2.68614 v 0.5223 0.52231 h -2.68614 -2.68615 z m -33.912643,-1.96825 c -0.21303,-0.0556 -0.261316,-0.23809 -0.262046,-0.99 -2.65e-4,-0.50696 -0.04404,-1.47576 -0.09674,-2.1529 l -0.09584,-1.23115 h 0.788718 0.788718 l -0.09794,1.45501 c -0.212061,3.15049 -0.205938,3.13305 -1.024879,2.91904 z m 64.467589,0 c -0.21303,-0.0556 -0.26131,-0.23809 -0.26204,-0.99 -5.3e-4,-0.50696 -0.0441,-1.47576 -0.0967,-2.1529 l -0.0959,-1.23115 h 0.78872 0.78872 l -0.0979,1.45501 c -0.21208,3.15049 -0.20595,3.13305 -1.02488,2.91904 z m -70.54873,-1.3823 c -0.451427,-0.31461 -1.22369,-0.9435 -1.716151,-1.3975 l -0.895385,-0.82548 0.477512,-0.48595 0.477518,-0.48595 1.204605,1.15086 c 0.66253,0.63299 1.371013,1.22671 1.574403,1.31938 0.456084,0.20781 0.462519,0.38078 0.03331,0.89516 l -0.335018,0.40151 z m -6.119419,-5.51886 c -0.205726,-0.0626 -0.584734,-0.22274 -0.842237,-0.35589 -1.703149,-0.88074 -2.758646,-3.49633 -2.509774,-6.21936 0.277794,-3.03943 1.515396,-4.72005 3.695922,-5.01893 l 0.70167,-0.0961 v 0.54259 c 0,0.46223 -0.04974,0.54307 -0.335767,0.54587 -0.478851,0.004 -1.472531,0.49218 -1.858095,0.91159 -0.180668,0.19652 -0.47766,0.69224 -0.66,1.10159 -0.450072,1.01045 -0.57273,3.5319 -0.229293,4.71329 0.446301,1.53524 1.392105,2.57851 2.550498,2.81336 0.400484,0.0812 0.463863,0.1625 0.504357,0.64717 0.04143,0.49596 0.01003,0.55296 -0.298461,0.54149 -0.189632,-0.007 -0.513095,-0.064 -0.71882,-0.12661 z m 81.928529,-0.4575 c 0,-0.55677 0.0286,-0.59692 0.4253,-0.59692 0.58381,0 1.56391,-0.74618 2.03421,-1.5487 0.21463,-0.36624 0.4976,-1.1917 0.6288,-1.83436 0.4034,-1.97583 -0.0747,-4.31102 -1.09132,-5.33051 -0.46729,-0.4686 -1.21297,-0.83719 -1.69373,-0.83719 -0.2471,0 -0.30326,-0.0967 -0.30326,-0.5223 0,-0.611 0.13881,-0.64225 1.30892,-0.29478 1.84053,0.54657 2.8197,2.21751 2.97117,5.07015 0.16901,3.18365 -0.98872,5.55532 -3.05561,6.25959 -1.08403,0.36937 -1.22448,0.32751 -1.22448,-0.36498 z M 33.29961,87.1489 c -0.451427,-0.31461 -1.22369,-0.94349 -1.716151,-1.3975 l -0.895385,-0.82547 0.477512,-0.48596 0.477518,-0.48595 1.204605,1.15088 c 0.66253,0.63297 1.371013,1.22668 1.574403,1.31936 0.456084,0.20781 0.462519,0.38077 0.03331,0.89516 l -0.335018,0.40151 z m -8.64343,-4.96163 c -0.136863,-0.39261 -0.126185,-0.50014 0.06002,-0.60434 0.289991,-0.16229 0.674187,-0.90217 0.674187,-1.29835 0,-0.2064 -0.09707,-0.30588 -0.298461,-0.30588 -0.265297,0 -0.29846,-0.0995 -0.29846,-0.89538 v -0.89539 h 0.895382 0.895384 l -0.0032,1.23116 c -0.0038,1.46295 -0.306784,2.26563 -1.076478,2.8527 -0.283438,0.21619 -0.552794,0.39305 -0.598575,0.39305 -0.04581,0 -0.158155,-0.2149 -0.249722,-0.47757 z m 83.70638,-0.49242 v -0.52231 h 3.20846 3.20846 v 0.52231 0.52231 h -3.20846 -3.20846 z m -88.345433,-0.0648 c -0.205724,-0.0626 -0.584732,-0.22273 -0.84224,-0.35589 -1.703147,-0.88073 -2.758647,-3.49632 -2.509772,-6.21935 0.277794,-3.03943 1.515399,-4.72005 3.69592,-5.01892 l 0.70167,-0.0962 v 0.54259 c 0,0.46222 -0.04972,0.54307 -0.33577,0.54587 -0.478845,0.004 -1.472525,0.49217 -1.858089,0.91158 -0.180666,0.19652 -0.477663,0.69225 -0.660003,1.10161 -0.450067,1.01043 -0.572731,3.53189 -0.229294,4.71329 0.446308,1.53523 1.392103,2.5785 2.550499,2.81334 0.400489,0.0812 0.463862,0.16252 0.504359,0.64718 0.04144,0.49596 0.01,0.55297 -0.29846,0.54149 -0.189632,-0.007 -0.513099,-0.064 -0.71882,-0.12661 z m 96.254653,-0.45749 c 0,-0.55677 0.0286,-0.59692 0.42531,-0.59692 0.5838,0 1.5639,-0.74618 2.03421,-1.54869 0.21463,-0.36625 0.4976,-1.19171 0.6288,-1.83438 0.40339,-1.97582 -0.0747,-4.311 -1.09133,-5.3305 -0.46729,-0.4686 -1.21297,-0.83719 -1.69373,-0.83719 -0.24709,0 -0.30326,-0.0967 -0.30326,-0.5223 0,-0.611 0.13882,-0.64226 1.30891,-0.29478 1.84054,0.54658 2.81972,2.2175 2.97118,5.07016 0.16902,3.18364 -0.98871,5.55531 -3.05561,6.25957 -1.08402,0.36937 -1.22448,0.32751 -1.22448,-0.36497 z M 20.017127,67.60238 c -0.205724,-0.0626 -0.584732,-0.22272 -0.84224,-0.35588 -1.703147,-0.88074 -2.758647,-3.49633 -2.509772,-6.21936 0.277794,-3.03943 1.515399,-4.72005 3.69592,-5.01893 l 0.70167,-0.0961 v 0.54259 c 0,0.46222 -0.04972,0.54308 -0.33577,0.54586 -0.478845,0.004 -1.472525,0.49218 -1.858089,0.91159 -0.180666,0.19652 -0.477663,0.69225 -0.660003,1.10161 -0.450067,1.01044 -0.572731,3.53189 -0.229294,4.71329 0.446308,1.53523 1.392103,2.57851 2.550499,2.81334 0.400489,0.0812 0.463862,0.16252 0.504359,0.64717 0.04144,0.49598 0.01,0.55298 -0.29846,0.5415 -0.189632,-0.007 -0.513099,-0.064 -0.71882,-0.12661 z M 116.27178,67.1449 c 0,-0.55678 0.0286,-0.59693 0.42531,-0.59693 0.5838,0 1.5639,-0.74618 2.03421,-1.54869 0.21463,-0.36625 0.4976,-1.19171 0.6288,-1.83437 0.40339,-1.97582 -0.0747,-4.31101 -1.09133,-5.3305 -0.46729,-0.46861 -1.21297,-0.83719 -1.69373,-0.83719 -0.24709,0 -0.30326,-0.0967 -0.30326,-0.5223 0,-0.61101 0.13882,-0.64227 1.30891,-0.29479 1.84054,0.54658 2.81972,2.21752 2.97118,5.07016 0.16902,3.18364 -0.98871,5.55532 -3.05561,6.25958 -1.08402,0.36936 -1.22448,0.3275 -1.22448,-0.36497 z M 26.136545,59.09358 C 25.685118,58.77897 24.91285,58.1501 24.420394,57.69608 l -0.895384,-0.82547 0.477512,-0.48596 0.477517,-0.48594 1.204603,1.15087 c 0.662533,0.63298 1.371015,1.22669 1.574406,1.31936 0.456083,0.2078 0.462515,0.38077 0.03331,0.89517 l -0.335029,0.4015 z m 85.956785,0 c -0.45142,-0.31461 -1.22369,-0.94348 -1.71615,-1.3975 l -0.89539,-0.82547 0.47752,-0.48596 0.47752,-0.48594 1.2046,1.15087 c 0.66253,0.63298 1.37101,1.22669 1.5744,1.31936 0.45609,0.2078 0.46252,0.38077 0.0333,0.89517 l -0.33502,0.4015 z M 27.180191,53.57472 c -0.205726,-0.0625 -0.584734,-0.22273 -0.842237,-0.35589 -1.703149,-0.88074 -2.758646,-3.49632 -2.509774,-6.21935 0.277794,-3.03944 1.515396,-4.72007 3.695922,-5.01894 l 0.70167,-0.0962 v 0.5426 c 0,0.46223 -0.04974,0.54308 -0.335772,0.54587 -0.478846,0.004 -1.472526,0.49217 -1.85809,0.91159 -0.180668,0.19652 -0.47766,0.69224 -0.660005,1.1016 -0.450067,1.01044 -0.572731,3.5319 -0.229288,4.71329 0.446301,1.53524 1.3921,2.57851 2.550498,2.81334 0.400484,0.0812 0.463863,0.16252 0.504357,0.64717 0.04143,0.49598 0.01003,0.55298 -0.298461,0.5415 -0.189632,-0.007 -0.513095,-0.064 -0.71882,-0.1266 z m 81.928529,-0.45749 c 0,-0.55678 0.0286,-0.59692 0.4253,-0.59692 0.58381,0 1.56391,-0.74618 2.03421,-1.5487 0.21463,-0.36624 0.4976,-1.19171 0.6288,-1.83437 0.4034,-1.97582 -0.0747,-4.31101 -1.09132,-5.33051 -0.46729,-0.4686 -1.21297,-0.83718 -1.69373,-0.83718 -0.2471,0 -0.30326,-0.0967 -0.30326,-0.5223 0,-0.611 0.13881,-0.64227 1.30892,-0.29478 1.84053,0.54658 2.8197,2.2175 2.97117,5.07015 0.16901,3.18364 -0.98872,5.55532 -3.05561,6.25958 -1.08403,0.36937 -1.22448,0.32751 -1.22448,-0.36497 z M 33.29961,45.06592 c -0.451427,-0.31463 -1.22369,-0.94349 -1.716151,-1.39751 l -0.895385,-0.82548 0.477512,-0.48594 0.477518,-0.48595 1.204605,1.15087 c 0.66253,0.63298 1.371013,1.22669 1.574403,1.31936 0.456084,0.2078 0.462519,0.38077 0.03331,0.89516 l -0.335018,0.40151 z m -1.480363,-4.96164 c -0.136866,-0.3926 -0.126187,-0.50013 0.06002,-0.60434 0.289999,-0.16228 0.67419,-0.90217 0.67419,-1.29835 0,-0.20638 -0.09708,-0.30588 -0.298463,-0.30588 -0.265301,0 -0.298461,-0.0995 -0.298461,-0.89538 v -0.89538 h 0.895384 0.895382 l -0.0032,1.23115 c -0.0038,1.46296 -0.306787,2.26563 -1.076484,2.8527 -0.283434,0.21619 -0.552788,0.39307 -0.598569,0.39307 -0.04581,0 -0.158157,-0.21492 -0.249727,-0.47759 z m 71.630653,0 c -0.13686,-0.3926 -0.12618,-0.50013 0.06,-0.60434 0.29,-0.16228 0.6742,-0.90217 0.6742,-1.29835 0,-0.20638 -0.097,-0.30588 -0.29846,-0.30588 -0.2653,0 -0.29847,-0.0995 -0.29847,-0.89538 v -0.89538 h 0.89539 0.89538 l -0.003,1.23115 c -0.004,1.46296 -0.30678,2.26563 -1.07648,2.8527 -0.28344,0.21619 -0.55278,0.39307 -0.59857,0.39307 -0.0458,0 -0.15816,-0.21492 -0.24973,-0.47759 z M 37.47806,34.3888 v -0.52231 h 2.686154 2.686146 v 0.52231 0.5223 H 40.164214 37.47806 Z M 47.625738,31.03825 C 47.174316,30.72364 46.40205,30.09476 45.909589,29.64074 l -0.895379,-0.82548 0.477507,-0.48594 0.477517,-0.48596 1.204598,1.15088 c 0.662538,0.63297 1.371021,1.22669 1.574413,1.31936 0.45608,0.20781 0.46251,0.38078 0.0333,0.89517 l -0.335028,0.4015 z m 21.489196,0 c -0.45142,-0.31461 -1.22369,-0.94349 -1.716159,-1.39751 l -0.89538,-0.82548 0.47752,-0.48594 0.47751,-0.48596 1.204599,1.15088 c 0.66253,0.63297 1.37102,1.22669 1.57441,1.31936 0.45609,0.20781 0.46252,0.38078 0.0333,0.89517 l -0.33502,0.4015 z m 7.16306,0 c -0.45142,-0.31461 -1.22368,-0.94349 -1.71614,-1.39751 l -0.89539,-0.82548 0.47751,-0.48594 0.47751,-0.48596 1.20461,1.15088 c 0.66254,0.63297 1.37102,1.22669 1.57441,1.31936 0.45608,0.20781 0.46251,0.38078 0.0333,0.89517 l -0.33504,0.4015 z m 21.489199,0 c -0.45142,-0.31461 -1.2237,-0.94349 -1.71615,-1.39751 l -0.89539,-0.82548 0.47752,-0.48594 0.47752,-0.48596 1.20459,1.15088 c 0.66254,0.63297 1.37102,1.22669 1.57441,1.31936 0.45609,0.20781 0.46252,0.38078 0.0333,0.89517 l -0.33502,0.4015 z M 51.058045,25.58419 v -0.5223 h 3.20845 3.20846 v 0.5223 0.52231 h -3.20846 -3.20845 z m 7.16307,0 v -0.5223 h 3.20844 3.20846 v 0.5223 0.52231 h -3.20846 -3.20844 z m 21.489179,0 v -0.5223 h 3.20847 3.20845 v 0.5223 0.52231 h -3.20845 -3.20847 z m 7.16307,0 v -0.5223 h 3.20845 3.20846 v 0.5223 0.52231 h -3.20846 -3.20845 z"
       id="path357" /><path
       style="fill:#f65b01;stroke:#f65b01;stroke-width:0.61595;stroke-linecap:square;stroke-linejoin:miter;stroke-dasharray:none;stroke-opacity:1;paint-order:fill markers stroke"
       d="m 51.953425,94.70041 c -0.36935,-0.173 -0.68843,-0.32169 -0.70907,-0.3304 -0.0207,-0.009 0.45752,-1.15179 1.06258,-2.54013 0.60507,-1.38836 1.55626,-3.6323 2.11377,-4.98657 0.55752,-1.35427 1.06274,-2.51898 1.12272,-2.58823 0.0599,-0.0693 0.41819,0.0108 0.79602,0.17796 0.61917,0.2739 0.67385,0.33786 0.55417,0.64823 -0.31229,0.80994 -3.94124,9.32688 -4.0972,9.61593 l -0.17145,0.31776 z M 82.193434,90.3093 c -1.1099,-2.60395 -2.08888,-4.92298 -2.17552,-5.15342 -0.15157,-0.40312 -0.13155,-0.43045 0.52943,-0.72284 0.37783,-0.16713 0.73615,-0.24721 0.79627,-0.17796 0.06,0.0692 0.53519,1.1668 1.05575,2.43899 0.52054,1.27219 1.46641,3.50652 2.10193,4.96517 l 1.15547,2.65209 -0.72268,0.36622 -0.72267,0.3662 z M 59.116495,80.67274 c -0.36935,-0.173 -0.68843,-0.32168 -0.70907,-0.33041 -0.0206,-0.009 0.45752,-1.15178 1.06258,-2.54013 0.60506,-1.38834 1.55626,-3.6323 2.11377,-4.98657 0.55751,-1.35426 1.06273,-2.51896 1.12272,-2.58822 0.0599,-0.0692 0.41819,0.0108 0.79601,0.17796 0.61918,0.27389 0.67386,0.33785 0.55418,0.64823 -0.31229,0.80994 -3.94124,9.32688 -4.09721,9.61593 l -0.17145,0.31775 z m 15.913869,-4.39111 c -1.1099,-2.60395 -2.08887,-4.92299 -2.17551,-5.15343 -0.15158,-0.40311 -0.13155,-0.43044 0.52943,-0.72283 0.37782,-0.16713 0.73613,-0.24721 0.79626,-0.17796 0.06,0.0693 0.5352,1.1668 1.05575,2.439 0.52055,1.27219 1.46642,3.50651 2.10192,4.96517 l 1.15548,2.65209 -0.72267,0.36621 -0.72268,0.3662 z m -7.16306,-14.02766 c -1.109899,-2.60396 -2.088869,-4.923 -2.175519,-5.15343 -0.15157,-0.40313 -0.13155,-0.43045 0.52944,-0.72284 0.37782,-0.16714 0.73613,-0.24721 0.79625,-0.17796 0.0601,0.0693 0.5352,1.16681 1.055759,2.439 0.52054,1.27219 1.46642,3.50651 2.10192,4.96517 l 1.15548,2.65209 -0.72268,0.3662 -0.72267,0.36621 z M 60.704235,48.22629 c -1.10989,-2.60395 -2.08887,-4.92299 -2.17551,-5.15342 -0.15158,-0.40312 -0.13155,-0.43046 0.52944,-0.72284 0.37781,-0.16713 0.73613,-0.24721 0.79625,-0.17795 0.0601,0.0692 0.5352,1.1668 1.05574,2.43899 0.52055,1.27219 1.46643,3.50651 2.10194,4.96517 l 1.15548,2.65209 -0.72268,0.3662 -0.72268,0.36621 z"
       id="path355" /></g></svg>
